              ***********************************************

                PublicHash - Largest Bittorrent Community
      
                          http://publichash.com/
    
              ***********************************************
Complete name: Star Trek Into Darkness 2013 TSRiP 720P MP3 $MURDER$.mkv
Format: Matroska
Format version: Version 4 / Version 2
File size: 1.28 GiB
Duration: 2h 2mn
Overall bit rate: 1 499 Kbps
Encoded date: UTC 2013-05-27 16:51:06
ID: 1
Format: AVC
Format/Info: Advanced Video Codec
Format profile: Baseline@L3.1
Format settings, CABAC: No
Format settings, ReFrames: 1 frame
Codec ID: V_MPEG4/ISO/AVC
Duration: 2h 2mn
Bit rate: 1 290 Kbps
Width: 1 202 pixels
Height: 544 pixels
Display aspect ratio: 2.35:1
Frame rate mode: Constant
Frame rate: 25.000 fps
Color space: YUV
Chroma subsampling: 4:2:0
Bit depth: 8 bits
Scan type: Progressive
Bits/(Pixel*Frame): 0.079
Stream size: 1.09 GiB (85%)
Writing library: x264 core
Default: Yes
Forced: No
ID: 2
Format: MPEG Audio
Format version: Version 1
Format profile: Layer 3
Mode: Joint stereo
Mode extension: MS Stereo
Codec ID: A_MPEG/L3
Codec ID/Hint: MP3
Duration: 2h 2mn
Bit rate mode: Constant
Bit rate: 192 Kbps
Channel(s): 2 channels
Sampling rate: 44.1 KHz
Compression mode: Lossy
Stream size: 168 MiB (13%)
Writing library: LAME3.98.4
Default: Yes
Forced: No

plot
After the crew of the Enterprise find an unstoppable force of terror from within their own organization, Captain Kirk leads a manhunt to a war-zone world to capture a one man weapon of mass destruction

cast
Director: J.J. Abrams
Writer: Roberto Orci, Alex Kurtzman
Actors: Chris Pine, Zachary Quinto, Zoe Saldana, Benedict Cumberbatch
